<?xml version="1.0" encoding="UTF-8"?>
<!DOCTYPE svg PUBLIC "-//W3C//DTD SVG 1.1//EN" "http://www.w3.org/Graphics/SVG/1.1/DTD/svg11.dtd">
<svg xmlns="http://www.w3.org/2000/svg" version="1.1" width="120px" height="120px" style="shape-rendering:geometricPrecision; text-rendering:geometricPrecision; image-rendering:optimizeQuality; fill-rule:evenodd; clip-rule:evenodd" xmlns:xlink="http://www.w3.org/1999/xlink">
<g><path style="opacity:0.997" fill="#1db226" d="M 7.5,-0.5 C 42.1667,-0.5 76.8333,-0.5 111.5,-0.5C 114.833,1.5 117.5,4.16667 119.5,7.5C 119.5,42.1667 119.5,76.8333 119.5,111.5C 117.5,114.833 114.833,117.5 111.5,119.5C 76.8333,119.5 42.1667,119.5 7.5,119.5C 4.16667,117.5 1.5,114.833 -0.5,111.5C -0.5,76.8333 -0.5,42.1667 -0.5,7.5C 1.5,4.16667 4.16667,1.5 7.5,-0.5 Z"/></g>
<g><path style="opacity:1" fill="#fdfdfd" d="M 48.5,26.5 C 63.1667,26.5 77.8333,26.5 92.5,26.5C 92.5,41.1667 92.5,55.8333 92.5,70.5C 85.1667,70.5 77.8333,70.5 70.5,70.5C 70.5,63.1667 70.5,55.8333 70.5,48.5C 63.1667,48.5 55.8333,48.5 48.5,48.5C 48.5,41.1667 48.5,33.8333 48.5,26.5 Z"/></g>
<g><path style="opacity:1" fill="#fcfcfc" d="M 26.5,70.5 C 33.8333,70.5 41.1667,70.5 48.5,70.5C 48.5,77.8333 48.5,85.1667 48.5,92.5C 41.1667,92.5 33.8333,92.5 26.5,92.5C 26.5,85.1667 26.5,77.8333 26.5,70.5 Z"/></g>
</svg>
